# xmcd
#
# Track frame offsets: 
#        150
#        19187
#        35175
#        53535
#        70247
#        87387
#        106615
#        124607
#        148125
#        163465
#        182475
#        198632
#        217715
#        235417
#
# Disc length: 3377 seconds
#
# Revision: 2
# Processed by: cddbd v1.5.2PL0 Copyright (c) Steve Scherf et al.
# Submitted via: ExactAudioCopyFreeDBPlugin 1.0
#
DISCID=c60d2f0e
DTITLE=Bettye LaVette - The Very Best of the Motorcity Recordings
DYEAR=1996
DGENRE=Soul
TTITLE0=Good Luck
TTITLE1=Right Out of Time
TTITLE2=Have a Heart
TTITLE3=Jimmy Mack
TTITLE4=Let Me Down Easy
TTITLE5=Out of the Blue
TTITLE6=Time Won't Change this Love
TTITLE7=Not Gonna Happen Twice
TTITLE8=Surrender
TTITLE9=Too Great a Price to Pay
TTITLE10=I'm Ready for Love
TTITLE11=Love Caught Me Out
TTITLE12=Danger Heartbreak Dead Ahead
TTITLE13=Reach for the Sky
EXTD=
EXTT0=
EXTT1=
EXTT2=
EXTT3=
EXTT4=
EXTT5=
EXTT6=
EXTT7=
EXTT8=
EXTT9=
EXTT10=
EXTT11=
EXTT12=
EXTT13=
PLAYORDER=
